<svg xmlns="http://www.w3.org/2000/svg" width="33" height="36"><defs><linearGradient id="a" x1="308.503" x2="444.982" y1="185.642" y2="334.516" gradientTransform="matrix(.2407 0 0 .24 -74.107 -44.45)" gradientUnits="userSpaceOnUse"><stop offset="0" style="stop-color:#f92bb1;stop-opacity:1"/><stop offset=".9" style="stop-color:#7f02fe;stop-opacity:1"/></linearGradient></defs><path d="M2.887 23.129c0 4.84.004 8.11.265 9.082.184.687.371 1.926.5 2.168.13.242.188.488.13.547-.06.058-.637-.371-1.286-.953-.648-.582-1.45-1.582-1.781-2.227-.582-1.14-.598-1.308-.668-7.289L0 7.719c0-1.746.105-2.324.617-3.422.336-.727.957-1.68 1.38-2.121.425-.442 1.3-1.07 1.944-1.403C4.59.445 5.688.117 6.383.047c.695-.074 1.758-.059 2.355.031.727.11 2.317.863 4.778 2.274a4172.82 4172.82 0 0 1 7.78 4.46c2.255 1.297 5.122 2.938 6.38 3.653 1.258.715 2.703 1.7 3.21 2.187.509.489 1.114 1.262 1.352 1.727.235.46.504 1.164.602 1.559.094.394.168 1.417.16 2.269-.008 1.23-.164 1.86-.75 3.047-.43.875-1.11 1.789-1.633 2.2-.492.386-3.492 2.187-6.672 4.003a2603.87 2603.87 0 0 0-9.715 5.578c-2.168 1.254-4.28 2.363-4.695 2.469-.414.105-1.16.258-1.656.344L6.977 36V9.605l.578-.668c.449-.523.78-.667 1.504-.66.66.008 1.445.32 2.734 1.094a300.08 300.08 0 0 0 4.453 2.61c1.453.835 3.676 2.113 4.934 2.84 1.258.722 2.476 1.523 2.707 1.78.23.258.422.844.422 1.301 0 .606-.188 1.008-.684 1.473-.379.355-1.746 1.238-3.043 1.96-1.3.727-3.617 2.052-5.156 2.946l-2.793 1.621-.07-1.476c-.043-.813-.028-1.598.03-1.742.055-.145 1.794-1.239 3.86-2.426 2.067-1.188 3.754-2.27 3.75-2.399-.004-.132-2.234-1.511-4.957-3.062-2.719-1.55-5.043-2.758-5.164-2.684-.121.075-.215 4.348-.215 9.825 0 5.332.086 9.746.192 9.808.105.067.726-.176 1.382-.539a279.78 279.78 0 0 0 3.598-2.055c1.324-.77 4.574-2.64 7.223-4.16 2.648-1.52 5.238-3.043 5.754-3.387.52-.343 1.152-.914 1.41-1.261.258-.348.527-1.121.594-1.723.066-.601.05-1.48-.04-1.953-.093-.5-.496-1.191-.96-1.656-.442-.442-2.036-1.508-3.54-2.371-1.507-.868-4.418-2.54-6.468-3.72-2.051-1.183-4.813-2.773-6.137-3.542-1.324-.766-2.91-1.645-3.523-1.957-.618-.309-1.497-.567-1.957-.567-.461 0-1.22.16-1.684.352-.461.195-1.152.68-1.531 1.082-.38.399-.817 1.078-.973 1.508-.156.43-.293 1.367-.305 2.082Zm0 0" style="stroke:none;fill-rule:nonzero;fill:url(#a)"/></svg>
